<?xml version="1.0" encoding="UTF-8"?>
<svg xmlns="http://www.w3.org/2000/svg" xml:space="preserve" width="184.35mm" height="130.64mm" version="1.1" style="shape-rendering:geometricPrecision; text-rendering:geometricPrecision; image-rendering:optimizeQuality; fill-rule:evenodd; clip-rule:evenodd"
viewBox="0 0 19179.28 13591.4"
 xmlns:xlink="http://www.w3.org/1999/xlink"
 xmlns:xodm="http://www.corel.com/coreldraw/odm/2003">
 <defs>
  <style type="text/css">
   <![CDATA[
    .str1 {stroke:#00252E;stroke-width:20.81;stroke-miterlimit:22.9256}
    .str2 {stroke:#00252E;stroke-width:20.81;stroke-miterlimit:22.9256}
    .str0 {stroke:#E6E7E8;stroke-width:20.81;stroke-miterlimit:22.9256}
    .fil1 {fill:#00252E}
    .fil5 {fill:#A7B9C8}
    .fil3 {fill:#D8D8D8}
    .fil2 {fill:#E1E8EE}
    .fil0 {fill:white}
    .fil6 {fill:url(#id0)}
    .fil11 {fill:url(#id1)}
    .fil10 {fill:url(#id2)}
    .fil15 {fill:url(#id3)}
    .fil8 {fill:url(#id4)}
    .fil9 {fill:url(#id5)}
    .fil14 {fill:url(#id6)}
    .fil4 {fill:url(#id7)}
    .fil7 {fill:url(#id8)}
    .fil13 {fill:url(#id9)}
    .fil12 {fill:url(#id10)}
   ]]>
  </style>
  <linearGradient id="id0" gradientUnits="userSpaceOnUse" x1="2216.66" y1="5174.78" x2="2216.66" y2="6871.13">
   <stop offset="0" style="stop-opacity:1; stop-color:#00C7FA"/>
   <stop offset="1" style="stop-opacity:1; stop-color:#007DFA"/>
  </linearGradient>
  <linearGradient id="id1" gradientUnits="userSpaceOnUse" xlink:href="#id0" x1="14021.01" y1="9434.44" x2="14021.01" y2="9999.87">
  </linearGradient>
  <linearGradient id="id2" gradientUnits="userSpaceOnUse" xlink:href="#id0" x1="14021.01" y1="6833.43" x2="14021.01" y2="7398.86">
  </linearGradient>
  <linearGradient id="id3" gradientUnits="userSpaceOnUse" xlink:href="#id0" x1="14021.01" y1="12035.48" x2="14021.01" y2="12600.91">
  </linearGradient>
  <linearGradient id="id4" gradientUnits="userSpaceOnUse" x1="13822.08" y1="5856.64" x2="14167.91" y2="6658.33">
   <stop offset="0" style="stop-opacity:1; stop-color:#FAD961"/>
   <stop offset="1" style="stop-opacity:1; stop-color:#FF52C1"/>
  </linearGradient>
  <linearGradient id="id5" gradientUnits="userSpaceOnUse" xlink:href="#id4" x1="13822.08" y1="8457.68" x2="14167.91" y2="9259.36">
  </linearGradient>
  <linearGradient id="id6" gradientUnits="userSpaceOnUse" xlink:href="#id4" x1="13822.08" y1="11058.72" x2="14167.91" y2="11860.4">
  </linearGradient>
  <linearGradient id="id7" gradientUnits="userSpaceOnUse" xlink:href="#id4" x1="1636.62" y1="2260.24" x2="2743.28" y2="4825.65">
  </linearGradient>
  <linearGradient id="id8" gradientUnits="userSpaceOnUse" x1="1860.11" y1="7679.19" x2="2898.37" y2="9566.62">
   <stop offset="0" style="stop-opacity:1; stop-color:#FF52C1"/>
   <stop offset="1" style="stop-opacity:1; stop-color:#9952FF"/>
  </linearGradient>
  <linearGradient id="id9" gradientUnits="userSpaceOnUse" xlink:href="#id8" x1="13902.18" y1="10237.81" x2="14248.25" y2="10866.95">
  </linearGradient>
  <linearGradient id="id10" gradientUnits="userSpaceOnUse" xlink:href="#id8" x1="13902.18" y1="7636.81" x2="14248.25" y2="8265.93">
  </linearGradient>
 </defs>
 <g id="Layer_x0020_1">
  <metadata id="CorelCorpID_0Corel-Layer"/>
  <path class="fil0 str0" d="M387.54 10.4l17348.23 0c208.25,0 377.14,168.88 377.14,377.15l0 10554.53c0,208.24 -168.88,377.12 -377.15,377.12l-17348.22 0.02c-208.24,-0.02 -377.12,-168.9 -377.12,-377.17l-0.01 -10554.5c0.01,-208.26 168.89,-377.15 377.16,-377.15z"/>
  <path class="fil1 str1" d="M387.52 10.4l17348.25 0c208.29,0 377.11,168.85 377.11,377.11l0 829.16 -18102.48 0 0 -829.13c0,-208.29 168.84,-377.15 377.11,-377.15z"/>
  <path class="fil2" d="M1462.37 387.35l3582.81 0c52.07,0 94.29,42.22 94.29,94.28l-0.01 263.79c0.01,52.06 -42.21,94.28 -94.27,94.28l-3582.82 0c-52.04,0 -94.26,-42.22 -94.26,-94.28l-0.02 -263.79c0.02,-52.06 42.24,-94.28 94.3,-94.28z"/>
  <path class="fil3" d="M16340.33 425.07l528.04 0c20.81,0 37.68,16.87 37.68,37.68l0 0.03c0,20.81 -16.87,37.68 -37.68,37.68l-528.04 0c-20.81,0 -37.68,-16.87 -37.68,-37.68l0 -0.03c0,-20.81 16.87,-37.68 37.68,-37.68z"/>
  <path class="fil3" d="M16340.33 575.86l528.04 0c20.81,0 37.68,16.87 37.68,37.68l0 0.03c0,20.81 -16.87,37.68 -37.68,37.68l-528.04 0c-20.81,0 -37.68,-16.87 -37.68,-37.68l0 -0.03c0,-20.81 16.87,-37.68 37.68,-37.68z"/>
  <path class="fil3" d="M16340.33 726.65l528.04 0c20.81,0 37.68,16.87 37.68,37.68l0 0.02c0,20.82 -16.87,37.69 -37.68,37.69l-528.04 0c-20.81,0 -37.68,-16.87 -37.68,-37.68l0 -0.03c0,-20.81 16.87,-37.68 37.68,-37.68z"/>
  <ellipse class="fil4" cx="2273.22" cy="3516.16" rx="905.12" ry="904.71"/>
  <path class="fil2" d="M4290.9 2837.63l2055.4 0c31.25,0 56.59,25.33 56.59,56.57l-0.02 188.44c0.02,31.24 -25.31,56.58 -56.54,56.58l-2055.42 0c-31.22,0 -56.55,-25.33 -56.55,-56.57l-0.02 -188.45c0.02,-31.23 25.35,-56.57 56.59,-56.57z"/>
  <path class="fil2" d="M4290.9 3440.76l7429.58 0c31.24,0 56.58,25.33 56.58,56.57l-0.01 37.65c0.01,31.24 -25.32,56.58 -56.55,56.58l-7429.59 0c-31.22,0 -56.55,-25.33 -56.55,-56.57l-0.02 -37.66c0.02,-31.23 25.35,-56.57 56.59,-56.57z"/>
  <path class="fil2" d="M4290.9 3742.35l6801 0c31.24,0 56.58,25.33 56.58,56.57l-0.01 37.65c0.01,31.23 -25.32,56.57 -56.55,56.57l-6801.01 0c-31.22,0 -56.55,-25.33 -56.55,-56.57l-0.02 -37.65c0.02,-31.23 25.35,-56.57 56.59,-56.57z"/>
  <path class="fil2" d="M4290.9 4043.9l6172.44 0c31.23,0 56.57,25.33 56.57,56.57l0 37.65c0,31.24 -25.33,56.58 -56.57,56.58l-6172.44 -0.01c-31.22,0.01 -56.55,-25.32 -56.55,-56.55l-0.02 -37.66c0.02,-31.23 25.35,-56.57 56.59,-56.57z"/>
  <ellipse class="fil5" cx="12908.44" cy="3516.16" rx="226.27" ry="226.19"/>
  <ellipse class="fil5" cx="14115.28" cy="3516.16" rx="226.27" ry="226.19"/>
  <ellipse class="fil5" cx="13511.87" cy="3516.16" rx="226.27" ry="226.19"/>
  <ellipse class="fil5" cx="14718.69" cy="3516.16" rx="226.27" ry="226.19"/>
  <ellipse class="fil5" cx="15322.12" cy="3516.16" rx="226.27" ry="226.19"/>
  <ellipse class="fil6" cx="2216.65" cy="6022.94" rx="848.56" ry="848.17"/>
  <path class="fil2" d="M4234.3 5344.39l2055.4 0c31.25,0 56.59,25.33 56.59,56.57l-0.02 188.45c0.02,31.23 -25.31,56.57 -56.54,56.57l-2055.42 0c-31.22,0 -56.55,-25.33 -56.55,-56.57l-0.01 -188.45c0.01,-31.23 25.34,-56.57 56.58,-56.57z"/>
  <path class="fil2" d="M4234.3 5947.52l7429.58 0c31.24,0 56.58,25.33 56.58,56.57l-0.01 37.66c0.01,31.23 -25.32,56.57 -56.55,56.57l-7429.59 0c-31.22,0 -56.55,-25.33 -56.55,-56.57l-0.01 -37.66c0.01,-31.23 25.34,-56.57 56.58,-56.57z"/>
  <path class="fil2" d="M4234.3 6249.11l6801 0c31.24,0 56.58,25.33 56.58,56.57l0 37.65c0,31.23 -25.33,56.57 -56.57,56.57l-6801.01 0c-31.22,0 -56.55,-25.33 -56.55,-56.57l-0.01 -37.65c0.01,-31.23 25.34,-56.57 56.58,-56.57z"/>
  <path class="fil2" d="M4234.3 6550.66l6172.44 0c31.23,0 56.57,25.33 56.57,56.57l0 37.65c0,31.24 -25.33,56.58 -56.57,56.58l-6172.44 0c-31.22,0 -56.55,-25.33 -56.55,-56.57l-0.01 -37.66c0.01,-31.23 25.34,-56.57 56.58,-56.57z"/>
  <ellipse class="fil5" cx="12851.87" cy="6022.94" rx="226.27" ry="226.19"/>
  <ellipse class="fil5" cx="14058.71" cy="6022.94" rx="226.27" ry="226.19"/>
  <ellipse class="fil5" cx="13455.31" cy="6022.94" rx="226.27" ry="226.19"/>
  <ellipse class="fil7" cx="2216.65" cy="8718.23" rx="848.56" ry="848.17"/>
  <path class="fil2" d="M4234.3 8039.67l2055.4 0c31.25,0 56.59,25.33 56.59,56.57l-0.02 188.45c0.02,31.23 -25.31,56.57 -56.54,56.57l-2055.42 0c-31.22,0 -56.55,-25.33 -56.55,-56.57l-0.01 -188.44c0.01,-31.24 25.34,-56.58 56.58,-56.58z"/>
  <path class="fil2" d="M4234.3 8642.81l7429.58 0c31.24,0 56.58,25.33 56.58,56.57l-0.01 37.66c0.01,31.23 -25.32,56.57 -56.55,56.57l-7429.59 0c-31.22,0 -56.55,-25.33 -56.55,-56.57l-0.01 -37.66c0.01,-31.23 25.34,-56.57 56.58,-56.57z"/>
  <path class="fil2" d="M4234.3 8944.39l6801 0c31.24,0 56.58,25.33 56.58,56.57l0 37.66c0,31.22 -25.33,56.55 -56.57,56.55l-6801.01 0.01c-31.22,-0.01 -56.55,-25.34 -56.55,-56.58l-0.01 -37.65c0.01,-31.23 25.34,-56.57 56.58,-56.57z"/>
  <path class="fil2" d="M4234.3 9245.94l6172.44 0c31.23,0 56.57,25.33 56.57,56.57l0 37.66c0,31.23 -25.33,56.57 -56.57,56.57l-6172.44 0c-31.22,0 -56.55,-25.33 -56.55,-56.57l-0.01 -37.66c0.01,-31.23 25.34,-56.57 56.58,-56.57z"/>
  <ellipse class="fil5" cx="12851.87" cy="8718.23" rx="226.27" ry="226.19"/>
  <ellipse class="fil5" cx="14058.71" cy="8718.23" rx="226.27" ry="226.19"/>
  <ellipse class="fil5" cx="13455.31" cy="8718.23" rx="226.27" ry="226.19"/>
  <ellipse class="fil5" cx="14662.12" cy="8718.23" rx="226.27" ry="226.19"/>
  <path class="fil0 str0" d="M13456.51 3930.79l5390.53 0c177.74,0 321.84,144.07 321.84,321.81l0 9006.54c0,177.74 -144.1,321.84 -321.84,321.84l-5390.53 0.01c-177.74,0 -321.81,-144.1 -321.81,-321.84l0 -9006.55c0,-177.74 144.07,-321.81 321.81,-321.81z"/>
  <path class="fil1 str2" d="M13456.51 3930.79l5390.53 0c177.74,0 321.84,144.07 321.84,321.81l0 707.55 -6034.18 0 0 -707.55c0,-177.74 144.07,-321.81 321.81,-321.81z"/>
  <path class="fil2" d="M13821.1 4284.64l1800.19 0c44.43,0 80.46,36.03 80.46,80.46l-0.01 225.08c0.01,44.43 -36.02,80.46 -80.45,80.46l-1800.19 0c-44.42,0 -80.45,-36.03 -80.45,-80.46l0 -225.08c0,-44.43 36.03,-80.46 80.46,-80.46z"/>
  <path class="fil3" d="M18042.49 4316.82l450.55 0c17.78,0 32.19,14.41 32.19,32.17l-0.01 0c0.01,17.76 -14.4,32.17 -32.17,32.17l-450.56 -0.01c-17.76,0.01 -32.17,-14.4 -32.17,-32.16l-0.01 0c0.01,-17.76 14.42,-32.17 32.19,-32.17z"/>
  <path class="fil3" d="M18042.49 4445.48l450.55 0c17.78,-0.01 32.19,14.4 32.19,32.16l-0.01 0c0.01,17.76 -14.4,32.17 -32.17,32.17l-450.56 0c-17.76,0 -32.17,-14.41 -32.17,-32.17l-0.01 0c0.01,-17.76 14.42,-32.17 32.19,-32.17z"/>
  <path class="fil3" d="M18042.49 4574.17l450.55 0c17.78,0 32.19,14.41 32.19,32.17l-0.01 0c0.01,17.76 -14.4,32.17 -32.17,32.17l-450.56 -0.01c-17.76,0.01 -32.17,-14.4 -32.17,-32.16l-0.01 0c0.01,-17.76 14.42,-32.17 32.19,-32.17z"/>
  <ellipse class="fil8" cx="14021.01" cy="6249.11" rx="282.86" ry="282.72"/>
  <path class="fil2" d="M14622.9 6022.92l1049.59 0c9.58,0 17.35,7.76 17.35,17.34l-0.01 65.83c0.01,9.58 -7.76,17.35 -17.33,17.35l-1049.6 -0.01c-9.57,0.01 -17.33,-7.76 -17.33,-17.33l-0.01 -65.85c0.01,-9.58 7.77,-17.34 17.35,-17.34z"/>
  <path class="fil2" d="M14622.9 6223.97l3736.68 0c9.58,0 17.35,7.76 17.35,17.34l-0.01 15.57c0.01,9.58 -7.76,17.35 -17.33,17.35l-3736.69 -0.01c-9.57,0.01 -17.33,-7.76 -17.33,-17.33l-0.01 -15.58c0.01,-9.58 7.77,-17.34 17.35,-17.34z"/>
  <path class="fil2" d="M14622.9 6324.5l3422.4 0c9.58,0 17.35,7.76 17.35,17.34l-0.01 15.57c0.01,9.57 -7.76,17.34 -17.33,17.34l-3422.41 0c-9.57,0 -17.33,-7.77 -17.33,-17.34l-0.01 -15.58c0.01,-9.57 7.77,-17.33 17.35,-17.33z"/>
  <path class="fil2" d="M14622.9 6424.99l3108.11 0c9.58,0.01 17.35,7.77 17.35,17.35l-0.01 15.57c0.01,9.57 -7.76,17.34 -17.33,17.34l-3108.12 0c-9.57,0 -17.33,-7.77 -17.33,-17.34l-0.01 -15.58c0.01,-9.57 7.77,-17.33 17.35,-17.33z"/>
  <ellipse class="fil9" cx="14021.01" cy="8850.15" rx="282.86" ry="282.72"/>
  <path class="fil2" d="M14622.9 8623.96l1049.59 0c9.58,-0.01 17.35,7.75 17.35,17.33l-0.01 65.86c0.01,9.56 -7.76,17.33 -17.33,17.33l-1049.6 0c-9.57,0 -17.33,-7.77 -17.33,-17.34l-0.01 -65.83c0.01,-9.59 7.77,-17.35 17.35,-17.35z"/>
  <path class="fil2" d="M14622.9 8825.01l3736.68 0c9.58,-0.01 17.35,7.75 17.35,17.33l-0.01 15.58c0.01,9.57 -7.76,17.34 -17.33,17.34l-3736.69 0c-9.57,0 -17.33,-7.77 -17.33,-17.34l-0.01 -15.57c0.01,-9.59 7.77,-17.35 17.35,-17.35z"/>
  <path class="fil2" d="M14622.9 8925.54l3422.4 0c9.58,-0.01 17.35,7.75 17.35,17.33l-0.01 15.58c0.01,9.56 -7.76,17.33 -17.33,17.33l-3422.41 0.01c-9.57,-0.01 -17.33,-7.78 -17.33,-17.35l-0.01 -15.56c0.01,-9.59 7.77,-17.35 17.35,-17.35z"/>
  <path class="fil2" d="M14622.9 9026.04l3108.11 0c9.58,-0.01 17.35,7.75 17.35,17.33l-0.01 15.58c0.01,9.56 -7.76,17.33 -17.33,17.33l-3108.12 0.01c-9.57,-0.01 -17.33,-7.78 -17.33,-17.35l-0.01 -15.57c0.01,-9.58 7.77,-17.34 17.35,-17.34z"/>
  <path class="fil2" d="M14622.9 6889.95l1049.59 0c9.58,0 17.35,7.76 17.35,17.34l-0.01 65.85c0.01,9.57 -7.76,17.34 -17.33,17.34l-1049.6 0c-9.57,0 -17.33,-7.77 -17.33,-17.34l-0.01 -65.85c0.01,-9.58 7.77,-17.34 17.35,-17.34z"/>
  <path class="fil2" d="M14622.9 7091l3736.68 0c9.58,0 17.35,7.76 17.35,17.34l-0.01 15.58c0.01,9.57 -7.76,17.34 -17.33,17.34l-3736.69 0c-9.57,0 -17.33,-7.77 -17.33,-17.34l-0.01 -15.58c0.01,-9.58 7.77,-17.34 17.35,-17.34z"/>
  <path class="fil2" d="M14622.9 7191.53l3422.4 0c9.58,0 17.35,7.76 17.35,17.34l-0.01 15.57c0.01,9.57 -7.76,17.34 -17.33,17.34l-3422.41 0c-9.57,0 -17.33,-7.77 -17.33,-17.34l-0.01 -15.57c0.01,-9.58 7.77,-17.34 17.35,-17.34z"/>
  <path class="fil2" d="M14622.9 7292.03l3108.11 0c9.58,0 17.35,7.76 17.35,17.34l-0.01 15.57c0.01,9.57 -7.76,17.34 -17.33,17.34l-3108.12 0c-9.57,0 -17.33,-7.77 -17.33,-17.34l-0.01 -15.57c0.01,-9.58 7.77,-17.34 17.35,-17.34z"/>
  <ellipse class="fil10" cx="14021.01" cy="7116.14" rx="282.86" ry="282.72"/>
  <path class="fil2" d="M14622.9 9490.96l1049.59 0c9.58,-0.01 17.35,7.75 17.35,17.33l-0.01 65.85c0.01,9.57 -7.76,17.34 -17.33,17.34l-1049.6 0c-9.57,0 -17.33,-7.77 -17.33,-17.34l-0.01 -65.83c0.01,-9.59 7.77,-17.35 17.35,-17.35z"/>
  <path class="fil2" d="M14622.9 9692.01l3736.68 0c9.58,-0.01 17.35,7.75 17.35,17.33l-0.01 15.58c0.01,9.57 -7.76,17.34 -17.33,17.34l-3736.69 0c-9.57,0 -17.33,-7.77 -17.33,-17.34l-0.01 -15.57c0.01,-9.59 7.77,-17.35 17.35,-17.35z"/>
  <path class="fil2" d="M14622.9 9792.54l3422.4 0c9.58,0 17.35,7.76 17.35,17.34l-0.01 15.58c0.01,9.56 -7.76,17.33 -17.33,17.33l-3422.41 0.01c-9.57,-0.01 -17.33,-7.78 -17.33,-17.35l-0.01 -15.57c0.01,-9.58 7.77,-17.34 17.35,-17.34z"/>
  <path class="fil2" d="M14622.9 9893.04l3108.11 0c9.58,0 17.35,7.76 17.35,17.34l-0.01 15.58c0.01,9.56 -7.76,17.33 -17.33,17.33l-3108.12 0.01c-9.57,-0.01 -17.33,-7.78 -17.33,-17.35l-0.01 -15.57c0.01,-9.58 7.77,-17.34 17.35,-17.34z"/>
  <ellipse class="fil11" cx="14021.01" cy="9717.15" rx="282.86" ry="282.72"/>
  <path class="fil2" d="M14622.9 7756.95l1049.59 0c9.58,-0.01 17.35,7.75 17.35,17.33l-0.01 65.86c0.01,9.56 -7.76,17.33 -17.33,17.33l-1049.6 0.01c-9.57,-0.01 -17.33,-7.78 -17.33,-17.35l-0.01 -65.83c0.01,-9.59 7.77,-17.35 17.35,-17.35z"/>
  <path class="fil2" d="M14622.9 7958l3736.68 0c9.58,-0.01 17.35,7.75 17.35,17.33l-0.01 15.6c0.01,9.56 -7.76,17.33 -17.33,17.33l-3736.69 0.01c-9.57,-0.01 -17.33,-7.78 -17.33,-17.35l-0.01 -15.57c0.01,-9.59 7.77,-17.35 17.35,-17.35z"/>
  <path class="fil2" d="M14622.9 8058.53l3422.4 0c9.58,-0.01 17.35,7.75 17.35,17.33l-0.01 15.58c0.01,9.56 -7.76,17.33 -17.33,17.33l-3422.41 0.01c-9.57,-0.01 -17.33,-7.78 -17.33,-17.35l-0.01 -15.56c0.01,-9.59 7.77,-17.35 17.35,-17.35z"/>
  <path class="fil2" d="M14622.9 8159.03l3108.11 0c9.58,-0.01 17.35,7.75 17.35,17.33l-0.01 15.58c0.01,9.56 -7.76,17.33 -17.33,17.33l-3108.12 0.01c-9.57,-0.01 -17.33,-7.78 -17.33,-17.35l-0.01 -15.56c0.01,-9.59 7.77,-17.35 17.35,-17.35z"/>
  <ellipse class="fil12" cx="14021.01" cy="7983.14" rx="282.86" ry="282.72"/>
  <path class="fil2" d="M14622.9 10357.97l1049.59 0c9.58,-0.01 17.35,7.75 17.35,17.33l-0.01 65.85c0.01,9.57 -7.76,17.34 -17.33,17.34l-1049.6 0c-9.57,0 -17.33,-7.77 -17.33,-17.34l-0.01 -65.85c0.01,-9.58 7.77,-17.34 17.35,-17.34z"/>
  <path class="fil2" d="M14622.9 10559.02l3736.68 0c9.58,-0.01 17.35,7.75 17.35,17.33l-0.01 15.58c0.01,9.57 -7.76,17.34 -17.33,17.34l-3736.69 0c-9.57,0 -17.33,-7.77 -17.33,-17.34l-0.01 -15.57c0.01,-9.59 7.77,-17.35 17.35,-17.35z"/>
  <path class="fil2" d="M14622.9 10659.54l3422.4 0c9.58,0 17.35,7.76 17.35,17.34l-0.01 15.58c0.01,9.56 -7.76,17.33 -17.33,17.33l-3422.41 0.01c-9.57,-0.01 -17.33,-7.78 -17.33,-17.35l-0.01 -15.57c0.01,-9.58 7.77,-17.34 17.35,-17.34z"/>
  <path class="fil2" d="M14622.9 10760.04l3108.11 0c9.58,0 17.35,7.76 17.35,17.34l-0.01 15.58c0.01,9.56 -7.76,17.33 -17.33,17.33l-3108.12 0c-9.57,0 -17.33,-7.77 -17.33,-17.34l-0.01 -15.57c0.01,-9.58 7.77,-17.34 17.35,-17.34z"/>
  <ellipse class="fil13" cx="14021.01" cy="10584.15" rx="282.86" ry="282.72"/>
  <ellipse class="fil14" cx="14021.01" cy="11451.18" rx="282.86" ry="282.72"/>
  <path class="fil2" d="M14622.9 11224.99l1049.59 0c9.58,-0.01 17.35,7.75 17.35,17.33l-0.01 65.86c0.01,9.56 -7.76,17.33 -17.33,17.33l-1049.6 0.01c-9.57,-0.01 -17.33,-7.78 -17.33,-17.35l-0.01 -65.83c0.01,-9.59 7.77,-17.35 17.35,-17.35z"/>
  <path class="fil2" d="M14622.9 11426.05l3736.68 0c9.58,-0.01 17.35,7.75 17.35,17.33l-0.01 15.6c0.01,9.56 -7.76,17.33 -17.33,17.33l-3736.69 0c-9.57,0 -17.33,-7.77 -17.33,-17.34l-0.01 -15.57c0.01,-9.59 7.77,-17.35 17.35,-17.35z"/>
  <path class="fil2" d="M14622.9 11526.58l3422.4 0c9.58,-0.01 17.35,7.75 17.35,17.33l-0.01 15.58c0.01,9.56 -7.76,17.33 -17.33,17.33l-3422.41 0.01c-9.57,-0.01 -17.33,-7.78 -17.33,-17.35l-0.01 -15.56c0.01,-9.59 7.77,-17.35 17.35,-17.35z"/>
  <path class="fil2" d="M14622.9 11627.08l3108.11 0c9.58,-0.01 17.35,7.75 17.35,17.33l-0.01 15.58c0.01,9.56 -7.76,17.33 -17.33,17.33l-3108.12 0.01c-9.57,-0.01 -17.33,-7.78 -17.33,-17.35l-0.01 -15.56c0.01,-9.59 7.77,-17.35 17.35,-17.35z"/>
  <path class="fil2" d="M14622.9 12092l1049.59 0c9.58,-0.01 17.35,7.75 17.35,17.33l-0.01 65.85c0.01,9.57 -7.76,17.34 -17.33,17.34l-1049.6 0c-9.57,0 -17.33,-7.77 -17.33,-17.34l-0.01 -65.83c0.01,-9.59 7.77,-17.35 17.35,-17.35z"/>
  <path class="fil2" d="M14622.9 12293.05l3736.68 0c9.58,-0.01 17.35,7.75 17.35,17.33l-0.01 15.58c0.01,9.57 -7.76,17.34 -17.33,17.34l-3736.69 0c-9.57,0 -17.33,-7.77 -17.33,-17.34l-0.01 -15.57c0.01,-9.59 7.77,-17.35 17.35,-17.35z"/>
  <path class="fil2" d="M14622.9 12393.58l3422.4 0c9.58,-0.01 17.35,7.75 17.35,17.33l-0.01 15.58c0.01,9.56 -7.76,17.33 -17.33,17.33l-3422.41 0.01c-9.57,-0.01 -17.33,-7.78 -17.33,-17.35l-0.01 -15.57c0.01,-9.58 7.77,-17.34 17.35,-17.34z"/>
  <path class="fil2" d="M14622.9 12494.07l3108.11 0c9.58,0 17.35,7.76 17.35,17.34l-0.01 15.58c0.01,9.56 -7.76,17.33 -17.33,17.33l-3108.12 0.01c-9.57,-0.01 -17.33,-7.78 -17.33,-17.35l-0.01 -15.57c0.01,-9.58 7.77,-17.34 17.35,-17.34z"/>
  <ellipse class="fil15" cx="14021.01" cy="12318.19" rx="282.86" ry="282.72"/>
 </g>
</svg>
