<?xml version="1.0" encoding="UTF-8"?>
<svg id="Capa_1" data-name="Capa 1" xmlns="http://www.w3.org/2000/svg" viewBox="0 0 800 640">
  <defs>
    <style>
      .cls-1 {
        fill: #fff;
        fill-rule: evenodd;
        stroke-width: 0px;
      }
    </style>
  </defs>
  <g id="Page-1">
    <g id="Dribbble-Light-Preview">
      <g id="icons">
        <path id="twitter-_154_" data-name="twitter-[#154]" class="cls-1" d="M251.6,640c301.88,0,467-246.25,467-459.79,0-7.01,0-13.98-.48-20.9,32.12-22.85,59.84-51.21,81.88-83.65-29.92,13.07-61.72,21.66-94.24,25.43,34.24-20.2,59.88-51.93,72.16-89.39-32.24,18.83-67.48,32.11-104.24,39.24-62.16-65.06-166.12-68.22-232.24-7.01-42.6,39.45-60.72,98.28-47.48,154.41-131.96-6.54-254.92-67.89-338.28-168.83-43.56,73.83-21.28,168.26,50.84,215.68-26.12-.74-51.68-7.68-74.52-20.2v2.05c.04,76.91,55.12,143.14,131.68,158.38-24.16,6.5-49.52,7.44-74.08,2.75,21.48,65.86,83.12,110.96,153.32,112.25-58.12,44.98-129.92,69.39-203.84,69.32-13.04-.04-26.08-.78-39.08-2.32,75.08,47.42,162.4,72.58,251.6,72.46"/>
      </g>
    </g>
  </g>
</svg>